<?xml version="1.0" encoding="utf-8"?>
<!-- Generator: Adobe Illustrator 23.0.0, SVG Export Plug-In . SVG Version: 6.00 Build 0)  -->
<svg version="1.1" id="Capa_1" xmlns="http://www.w3.org/2000/svg" xmlns:xlink="http://www.w3.org/1999/xlink" x="0px" y="0px"
	 viewBox="0 0 20 17.6" style="enable-background:new 0 0 20 17.6;" xml:space="preserve">
<style type="text/css">
	.st0{fill:#F15F2D;}
</style>
<g>
	<g>
		<path class="st0" d="M19,9.3l-0.6-1.1c-0.1-0.1-0.1-0.2-0.2-0.2c0,0-4.2-0.6-6.7-2.3c-0.5-0.3-1-1.4-1.5-2.4
			C9.5,1.8,8.8,0.4,7.9,0C7.4-0.2,7,0.6,6.6,1.5c-0.4,0.9-0.9,2-1.7,2.4c-1.6,1-4.1,0-4.2,0C0.7,3.8,0.6,3.9,0.5,4
			C0.4,4.2,0.3,4.3,0.3,4.5L0,14c0,0.2,0,0.3,0.1,0.5l0.2,1.9c0,0.3,0.2,0.6,0.3,0.6l11.6,0.6c0,0,0.1,0.1,0.1,0.1l0,0
			c3.2-0.1,5.2-0.6,5.2-0.6c1.2-0.2,2.1-1.2,2.3-2.7C20.2,12.8,19.9,11,19,9.3z M0.8,14.8c1.7,0.2,7.7,0.9,10.6,0.8
			c0.1,0.2,0.1,0.4,0.2,0.6L0.9,15.7L0.8,14.8z M19.2,13.9c-0.2,1-0.8,1.7-1.8,1.8c0,0-1.9,0.4-4.9,0.6c0,0,0,0,0,0h-0.1
			c-0.1-0.2-0.1-0.5-0.2-0.7c-0.3-1.1-0.4-1.4-0.7-1.4l0,0c-2.9,0.1-9.3-0.6-10.9-0.8l0.3-8C1.8,5.6,3.8,6,5.1,5.2
			c0.9-0.6,1.5-1.9,2-2.8c0.2-0.4,0.5-1,0.6-1l0,0c0.6,0.2,1,1,1.5,1.9L7.8,5.6c-0.1,0.3-0.2,0.7,0,1C7.8,6.7,7.9,6.8,8,6.8
			c0.1,0,0.2-0.1,0.2-0.1l1.4-2.4C9.8,4.6,9.9,4.8,10,5.1l0,0L8.5,7.5c-0.1,0.3-0.2,0.7,0,1c0.1,0.1,0.2,0.3,0.3,0.3
			c0.1,0,0.2-0.1,0.2-0.1l1.5-2.5c0-0.1,0-0.1,0.1-0.1c0.2,0.4,0.5,0.8,0.8,0.9c2.3,1.6,6,2.3,6.7,2.4l0.4,1
			C19.1,11.6,19.4,12.9,19.2,13.9z"/>
		<path class="st0" d="M6.8,9.7L6,10.4L2.7,7.5c-0.2-0.1-0.4,0-0.4,0.3s0,0.8,0.2,0.9l3.5,3c0,0.1,0.1,0.1,0.1,0.1s0.1,0,0.1-0.1
			L7,11c0.2-0.1,0.2-0.6,0.2-0.9C7.1,9.7,6.9,9.5,6.8,9.7z"/>
	</g>
</g>
</svg>
